<svg xmlns="http://www.w3.org/2000/svg" width="2400" height="3200" viewBox="0 0 2400 3200"><path fill-rule="evenodd" clip-rule="evenodd" d="M-210 2415.8v-30.6c21-23.5 48.3-31.6 79-32.5 15.2-.5 30.3-3.5 45.3-5.7 17.6-2.7 25-9.4 15.5-28.7-8-16-21.5-33.7-17-51 14-54.8 24.3-110.5 44.6-163.4 8-20.8 23-22 39-11 10 7 18 16.7 25.7 26 33.2 40 64.5 82 120.2 93 4.6.8 9.6 4 13 7.6 31.7 35.6 67 26.5 102 7 46-25.8 90-55.2 132.8-86.4 78.2-57 138-135.3 219.5-188.6 16.5-11 20.3-29.7 22-48.3 4.8-50.5 7.8-101.3 14.5-151.6 12-90 13.3-180.8 1.3-270.3-10.2-75.5-14.7-150 3.5-223.7 18.4-74.4 54.6-141.8 133.6-165 89.8-26.2 176-61.5 264.6-91 14-4.6 21.7-12.6 22-28.6.4-42.7 1.4-85-17.8-125.3-11-23-20-46-33.3-68.3-20.4-34.2-23.7-78.7-33.6-119-1-4 1.8-12.2 4.7-13.3 25.6-9.2 18.4-30.6 19-48.8.4-25.4-1.3-51 .3-76.3 6.7-107.6 48.6-190.4 167-211.5 2-.4 3.7-1.6 5.5-2.4h79.5c90.2 26.2 146 84.4 164 177.4 7.6 39.8-1.7 79-5.3 118.3-1.5 16.3-7.3 32.3 15.3 39.7 8 2.6 11.8 13 8 21-12.5 25.8-14.7 54.4-22 81.6-7 25.7-36 39.5-41.2 58.2-11.2 40.3-34.4 77.6-32.2 122.4 2.8 57.4 1.3 56 57 74 86.8 28.6 175.5 50 263.7 73.2 37 9.7 62 31.4 76.3 64.2 31.6 72.4 48.5 148.5 45.8 228-5 151.4-6 302.8 16.5 453.2 4.8 31.7 9 67 38.7 86.4 40.2 26 72.3 60.2 100.7 97 38 49 86 85.5 134.2 123 35.5 27.8 71.4 30.8 111 14.2 22.6-9.4 44.2-22 67.6-27.7 40-9.5 69.5-32 94-63 13-16.3 27.8-29.8 46.2-39.3 9.7-5 19.3-7 28.8-.3 10 7 15 17 11.6 29.2-7.3 26-2.4 52.6-4.4 78.8-2.6 36.3 14.4 71.6 2.8 107.3 22.7 0 44 .2 65.2 0 19.7-.3 30.5 11.5 34.6 28.4 3.8 15.7-2.4 28.5-21 22-19.6-7.2-35.8.6-52.8 6.3-47 15.6-91 39-138.2 55-25.4 8.7-44.2 8.2-65.4-5.4-22-14.2-47.5-16.8-76.8-26 13.6 34 26.2 61.8 19 92-20.5 84.8-57 160.6-126.2 217.4-15.5 12.7-33 20.7-52.5 22.2-19 1.4-35.3 8.2-51.5 17-29.5 16-58.7 32.5-88.8 47-16.7 8-19 13.5-5.5 28 27.3 29.7 12.5 108-22.8 128-5.2 3-11.3 5.5-17.2 6-37.5 3-75 6-112.3-3-28.8-6.8-58-10.6-87.7-8.2-98 7.8-195.5 21.3-294.6 15.4-87.2-5.2-174.6-5.5-261-19.8-49-8-99-20.7-148-18-81.6 4.8-162 24.7-242 43.6-34.5 8.3-60.7 0-78.2-29.4-17-28.7-42.6-43.4-73-50.4-79.4-18.3-154.4-50.3-232-73.7-64.7-19.5-113.4-59.3-151.3-112.3-32-44.6-44.7-95.7-28.5-150 5-16.6 16.3-31.2 26-48.8-22.2 3.5-41.5 4.8-59.6 10-45.6 13.3-95.5 4.2-139.3 27.7-9.4 5-25 7.3-30.4-4.4-10.3-21.5-28.6-15.5-44.6-17-17.6-1.4-40.5 17.6-49.7-14.6-1.2-4.4-9-1-14 .7-9.3 3.3-18.4 9-29 5.4zm594-90.4c17.4 9 31.6 8.3 45.8 9.3 45.5 3.2 91 7.7 136.6 10.3 66 3.8 130.3 20.7 196.7 20 23 0 33.8-8.2 40.2-31.4 29.2-105.6 57-210.8 64.8-321 4.5-65.2 7-129.7.6-194.4-.6-6-1-14.6-13.8-14.4-7 83-25.8 164-49.4 243.5-5.8 19.4-11.3 38.6-29.6 51.6-58 41-114 85.3-173.6 123.8-66.4 43-140.6 71.2-218.2 102.6zm1216.6-506c-2.3 30.6-6 53.8-5.5 77 3.3 144.6.2 290 47.8 430 7.5 22 16.5 24.6 34.6 10 48.2-38.7 102.4-64 163.5-76.8 54.5-11.3 108.4-24.8 165.2-19.6-5.6-4.7-11-7-16.8-8.8-113-38-214.8-95.3-303.5-175.5-21-18.8-36-40-42.5-68.4-12.3-53.8-27.2-107-43-168zM-19 2241.5c-2.4 13.6 3.6 28 6.2 42.8 1.8 10 8.6 13 14.2 5 11.5-16.5 29.5-32.5 19-56-6.3-14-11.5-36.6-28-34-11 1.8-11.5 25.2-11.4 42.2zm2373-27.7c29.6-27.5 30-60.2 27.3-96.8-39.5 35-45.7 57.5-27.2 96.7z"/></svg>