<?xml version="1.0" encoding="utf-8"?>
<!-- Generator: Adobe Illustrator 18.1.1, SVG Export Plug-In . SVG Version: 6.00 Build 0)  -->
<svg version="1.1" id="Ebene_1" xmlns="http://www.w3.org/2000/svg" xmlns:xlink="http://www.w3.org/1999/xlink" x="0px" y="0px"
	 viewBox="0 0 193 178" enable-background="new 0 0 193 178" xml:space="preserve">
<path d="M183.8,130.5c-0.8-0.1-1.7-0.1-2.5,0c-0.8,0-2.3,0.4-2.3,0.4s-0.9,0.5-0.6,0.1s0.7-0.8,0.8-1.6c0.2-0.8-0.2-2.4-0.3-3.7
	c-0.1-1.3-0.2-2.7-0.2-3.9c0,0,0-2.2,0.1-2.6c0-0.4,0.4-0.7,0.4-1.5c0-0.8-0.7-1.5-1.6-1.5c-0.9,0-2.2,1.1-2.7,1.5
	c-0.5,0.5-2.9,3.4-3.4,3.7c-0.6,0.3-1.7,1.2-2.2,1.3c-0.5,0.1-2.5,0.6-3.9,1.3c-1.4,0.7-2.9,1.5-4.4,1.6c-1.6,0.1-3.4-0.1-4.2-0.8
	c-0.9-0.7-3.3-2.4-4.1-3.2c-0.8-0.7-2.5-1.9-3.1-2.6c-0.6-0.7-2-2.7-3.3-4.1c-1.3-1.3-3-3.3-4-4c-1-0.7-2.4-1.4-2.9-2.3
	c-0.5-0.9-1.3-3.4-1.6-5.1c-0.3-1.7-0.7-5.3-0.7-6.7c-0.1-1.4-0.3-5-0.3-6.4c0-1.5-0.2-7.3-0.2-8.5c0-1.2,0.3-7.1,0.3-8.2
	c0-1.1-0.3-5.6-0.8-7.2c-0.5-1.5-1.4-5.3-2-6.7c-0.7-1.4-1.9-3.2-3.2-3.8c-1.3-0.6-4.8-1.4-7.1-2c-2.3-0.6-5.4-1.3-6.7-1.7
	c-1.3-0.4-4-1.4-5.1-1.7c-1.2-0.3-3.9-1.1-3.9-1.6c-0.1-0.5-0.1-3-0.1-4.1c0-1,0-2.1,0.4-2.7c0.4-0.6,1-2.1,1.1-2.9
	c0.1-0.8,0.4-2.6,0.7-2.6c0.3,0,0.9,0.1,1.4-0.4c0.5-0.5,0.7-1.7,0.9-2.1c0.2-0.4,0.7-1.4,0.7-2c0-0.7,0-0.9,0.2-1.7
	c0.3-0.8,0.8-1.5,0.8-2.2c0-0.7-0.2-1.1-0.6-1.2c-0.4-0.1-1,0.4-1-0.3c0-0.8-0.2-1.1,0.1-2.5c0.3-1.4,0.7-5.6,0.2-7.9
	c-0.4-2.3-1.7-4.9-3.3-6.7c-1.7-1.8-4.3-4-8.3-4.3C99.8,5,97.5,5,95.2,5.8c-3,1-5,2-6.4,4.3C86.4,14,86.3,16,86,18.9
	c0,0-0.1,5.8,0,6.8c0.1,1.1,0,1.4-0.4,1.3c-0.4-0.1-1,0-1.2,0.7c-0.1,0.7,0.2,1.2,0.4,1.8c0.2,0.6,0.5,1.7,0.6,2.4
	c0,0.8,0.6,2,0.8,2.2c0.1,0.3-0.1,1.4,0.4,2c0.5,0.6,1.4,0.6,1.5,0.9c0.1,0.3,0.4,2.2,0.8,3.4c0.4,1.2,0.9,1.7,0.9,2.3
	c0,0.6,0.2,1.7,0.3,2.8c0.1,1-0.1,2.6-0.1,3.3c0,0.7,0.1,1.5-0.5,1.6c-0.6,0.1-1.1,0.2-2.5,0.7c-1.3,0.5-2.7,1-3.5,1.3
	c-1,0.4-2.4,1-4.2,1.7c-1.8,0.6-5.4,1.7-7.9,2.4c-2.5,0.7-3.5,1.7-4.6,3c-1.1,1.3-3.7,4.6-4.2,7.6c-0.5,3-1.2,8-0.9,9.6
	c0.3,1.6,0.9,6.6,1,9.3c0.1,2.7,0.1,9.5-0.2,11.2c-0.2,1.6-1,12.2-1.3,13.1c-0.3,0.9-0.3,1.8-1.2,2.4c-0.8,0.7-2.3,1.6-3.2,2.3
	c-0.9,0.7-6.1,5.5-7,6.6c-0.9,1-6.2,5.1-7.6,5.9c-1.4,0.8-4.6,3.1-6.1,3.7c-1.5,0.6-2.9,1-3.9,0.7c-1-0.3-1.8-1.5-2.8-2
	c-1-0.5-3-0.9-3.8-1.4c-0.8-0.5-2.4-2.5-3.3-3.5c-0.9-1-2.4-3-3.1-3.2c-0.7-0.2-1.3-0.3-1.8,0.5c-0.3,0.4-0.3,1.3-0.5,1.5
	c-0.4,0.4-0.1,0-0.3,0.2c-0.4,0.5-0.3,2.4-0.6,3.4c-0.3,1-1.2,3.4-1.4,4.4c-0.2,1-0.5,1.7-0.2,2.2c0.2,0.5,1.3,3.3,1.6,3.7
	c0.3,0.4,0.8,0.5-0.1,0.6c-0.9,0-1.6,0.5-2.4,0.6c-0.8,0-2.8,0.2-4.1,0.4c-1.3,0.2-3.1,1.3-3.2,2.4c-0.1,0.7,0.1,1.5,0.7,1.3
	c0.6-0.1,2.4-1.3,2.5-0.6c0,0.6-0.4,1.4,0.6,1.4c1,0,1.5-0.2,2.2-0.2c0.6,0,1.1,0.1,1.6,0.1c0.5,0,1.2,0,1.3,0.2
	c0.2,0.2-0.2,1.1,0.3,1.2c0.4,0.1,1.3,0.1,1.7,0c0.4-0.1,0.6-0.5,1-0.6c0.4-0.1,1.4-0.5,2.1-0.5c0.7,0,1.7,0,3-0.3
	c1.3-0.2,2-0.4,3.3-0.6c1.2-0.1,2.7-0.5,3.3-0.7c0.6-0.2,1.9-0.8,1.4-0.4c-0.5,0.4-2,2.5-2.4,3.3c-0.4,0.8-0.8,3.2-0.4,4.9
	c0.4,1.7,0.8,3.9,2.2,5.6c1.4,1.8,4,4.3,5.5,5.2c1.5,1,5.6,2.3,7.7,3c2.1,0.7,7.9,2.8,10.9,3.4c3,0.6,4.2,1.7,4.9,2.5
	c0.6,0.7-0.1,0.4,1.3,1.8c1.4,1.4,1.2,1.3,2.7,1.3c1.6,0,3.2-0.7,4.4-0.8c1.1-0.1,4.3-1.1,5.8-1.3c1.6-0.2,3.5-0.5,5.1-0.6
	c1.6-0.1,1.6-0.5,3-0.4c1.4,0.1,2.7,0.3,4.8,0.6c2.1,0.2,4.9,0.9,6.5,1.1c1.6,0.1,6.1,0.6,7.7,0.7c1.6,0.1,5.6,0.3,7.1,0.2
	c1.5-0.1,4.5,0.1,6.1,0.2c1.6,0,4-0.3,5.3-0.5c1.3-0.2,3.2-0.3,4.8-0.4c1.5-0.1,3.8-0.5,5.5-0.3c1.6,0.2,4.6,1,6.1,1
	c1.5,0,4.3,0,5.4-0.7c1.2-0.7,1.4-2.7,2-3.7c0.6-1,0.7-2.4,0.2-3.4c-0.5-1-2.7-2.2-1.5-2.6c1.1-0.4,3.5-1.6,5.2-2.6
	c1.7-1,2.8-1.8,4.1-1.9c1.2-0.2,2.9-0.2,4.8-1.9c1.9-1.7,2.5-2.5,3.9-4.5c1.5-2,2.6-5.2,3-6.6c0.4-1.4,1.3-3.5,0.8-5.4
	c-0.5-1.8-1.7-3.8-1-3.6c0.7,0.1,1.7,0.7,2.7,0.9c1,0.3,1.1,0.2,1.7,0.5c0.6,0.3,1.1,1,2.1,1.2c0.9,0.2,1.1,0.3,1.6,0.1
	c0.5-0.2,1-0.9,1.5-0.9c0.5,0,0.9,0,1.3-0.2c0.5-0.1,0.6-0.5,1.1-0.5c0.5,0,0.8-0.1,1.1-0.3c0.3-0.3,0.5-0.5,1-0.6
	c0.5-0.1,1.2-0.5,1.7-0.7c0.5-0.2,0.9-0.4,1.7-0.6c0.8-0.3,1.4-0.7,2-0.7c0.6,0,1.1-0.4,1.8-0.1c0.8,0.3,1.1,0.7,1.4,0.1
	c0.4-0.5,0.4-1.1,0-1.8C185.1,131.1,184.7,130.6,183.8,130.5z M21.7,132c-0.2,0.8-1.2,2.5-1.5,2.9c-0.3,0.4-1,0.8-1.1,0.3
	c-0.1-0.6-0.5-2.2-0.6-2.6c-0.1-0.4-0.1-1.6,0.2-2.5c0.2-1,0.3-1.9,0.7-1.9c0.4,0,0.7,0.6,0.7,0.6S22,131.2,21.7,132z M76.4,119.4
	c-0.2,2.3-0.7,6.6-1.3,9.1c-0.7,2.4-1.5,5-1.9,6.1c-0.4,1.1-0.9,4.1-1.2,4.7c-0.3,0.7-3.9,0.3-5,0.4c-1.2,0.1-4.6-0.6-6.7-0.8
	c-2.1-0.3-5.8-0.6-7.4-0.7c-1.6-0.1-4.5-0.3-5.6-0.4c-1-0.1-3.2-0.2-3-0.5c0.2-0.3,1.4-0.8,2.3-1c0.9-0.2,2.9-1.2,4.4-1.9
	c1.5-0.7,3.8-1.8,5.7-2.6c1.8-0.8,4.3-2.8,4.3-2.8l1.5-1.1c0,0,3.8-2.8,5-3.7c1.2-0.9,3.4-2.3,4-3.1c0.5-0.8,1.9-6.3,1.9-6.3
	s0.5-1.7,0.8-2.9c0.3-1.2,0.9-4.8,1-6.4c0.1-1.5,0.5-2.4,0.5-3.1c0-0.7,0.7-0.3,0.9,1.1c0.2,1.4,0.4,4,0.5,6.3
	C77.3,112,76.6,117.1,76.4,119.4z M148.1,131.6c-2.2,0-5.1,0.7-7.4,1.2c-2.2,0.4-4,1-5.7,1.7c-1.3,0.5-3,1.7-4.4,2.6
	c-1.4,0.9-1.4,1.2-2.4,1.9c0,0-1.1-0.5-1.2-1.9c-0.1-1-0.8-2.8-1.2-4.9c-0.1-0.7-0.5-1.8-0.7-2.3c-0.8-2.4-0.4-3.7-0.8-6.5
	c-0.4-2.7,0.1-6.4-0.2-8.3c-0.3-1.9,0-11.6,0.1-12c0.1-0.4,0.7,1.3,0.7,2.1c0,0.8,0.9,3.6,1,4.6c0.1,1,1.2,4.1,1.5,5.9
	c0.4,1.8,2,3.2,2,3.2s4.5,3.9,5.9,4.8c1.4,0.9,5.2,3.3,6.4,3.8c1.1,0.5,5.8,2.6,6.8,2.9c1,0.3,3.4,1.1,3.4,1.4
	C152.1,132,150.3,131.6,148.1,131.6z M175.6,124.2c0.1,0.5-0.1,2.5-0.2,3.3c-0.1,0.7-0.4,0.8-0.8,1.3c-0.4,0.5-0.5,1.5-0.9,1.5
	c-0.4,0-0.8-1.4-1-2c-0.2-0.6,0-1.1,0.2-1.9c0.2-0.8,1.4-2.2,1.4-2.2s0.8-1,1.2-1.1C175.9,123,175.5,123.7,175.6,124.2z"/>
</svg>
